<svg width="200" height="80" viewBox="0 0 200 80" xmlns="http://www.w3.org/2000/svg">
    <defs>
        <linearGradient id="grad1" x1="0%" y1="0%" x2="100%" y2="100%">
            <stop offset="0%" style="stop-color:#000000;stop-opacity:1" />
            <stop offset="100%" style="stop-color:#333333;stop-opacity:1" />
        </linearGradient>
        <filter id="shadow" x="-20%" y="-20%" width="140%" height="140%">
            <feDropShadow dx="2" dy="2" stdDeviation="3" flood-color="#000000" flood-opacity="0.3" />
        </filter>
    </defs>

    <!-- 背景矩形 -->
    <rect x="0" y="0" width="200" height="80" fill="white" stroke="#e0e0e0" stroke-width="1" />

    <!-- J字母 -->
    <g transform="translate(20, 15)">
        <path d="M 0 10 L 0 50 L 15 50 L 15 40 L 10 40 L 10 10 Z" fill="url(#grad1)" filter="url(#shadow)" />
        <path d="M 5 45 Q 5 55 15 55" stroke="url(#grad1)" stroke-width="3" fill="none" filter="url(#shadow)" />
    </g>

    <!-- a字母 -->
    <g transform="translate(50, 15)">
        <path d="M 25 50 L 25 20 Q 25 10 15 10 Q 5 10 5 20 L 5 50 L 15 50 L 15 25 Q 15 20 20 20 Q 25 20 25 25 Z"
            fill="url(#grad1)" filter="url(#shadow)" />
        <path d="M 5 30 Q 5 20 15 20" stroke="url(#grad1)" stroke-width="3" fill="none" filter="url(#shadow)" />
    </g>

    <!-- y字母 -->
    <g transform="translate(80, 15)">
        <path d="M 0 10 L 10 30 L 20 10 L 15 10 L 10 25 L 5 10 Z" fill="url(#grad1)" filter="url(#shadow)" />
        <path d="M 10 30 L 10 50 L 15 50 L 15 35 L 10 30" fill="url(#grad1)" filter="url(#shadow)" />
    </g>

    <!-- 装饰性元素 -->
    <circle cx="160" cy="25" r="3" fill="#000000" opacity="0.7" />
    <circle cx="165" cy="35" r="2" fill="#000000" opacity="0.5" />
    <circle cx="170" cy="45" r="1.5" fill="#000000" opacity="0.3" />

    <!-- 底部装饰线 -->
    <line x1="20" y1="70" x2="180" y2="70" stroke="#000000" stroke-width="1" opacity="0.6" />
</svg>